PathFileType	4	(X/Y/Z)	2014001\dynamic\2014001_C3_01.trc
DataRate	CameraRate	NumFrames	NumMarkers	Units	OrigDataRate	OrigDataStartFrame	OrigNumFrames
100.000000	100.000000	4	52	mm	100.000000	96	192
Frame#	Time	L_IAS			L_IPS			R_IPS			R_IAS			L_FTC			L_FLE			L_FME			L_FAX			L_TTC			L_FAL			L_TAM			L_FCC			L_FM1			L_FM2			L_FM5			R_FTC			R_FLE			R_FME			R_FAX			R_TTC			R_FAL			R_TAM			R_FCC			R_FM1			R_FM2			R_FM5			CV7			TV10			SXS			SJN			L_SIA			L_SRS			L_SAA			L_SAE			L_HLE			L_HME			L_UOA			L_RSP			L_UHE			L_HM2			L_HM5			R_SIA			R_SRS			R_SAA			R_SAE			R_HLE			R_HME			R_UOA			R_RSP			R_UHE			R_HM2			R_HM5			
		X1	Y1	Z1	X2	Y2	Z2	X3	Y3	Z3	X4	Y4	Z4	X5	Y5	Z5	X6	Y6	Z6	X7	Y7	Z7	X8	Y8	Z8	X9	Y9	Z9	X10	Y10	Z10	X11	Y11	Z11	X12	Y12	Z12	X13	Y13	Z13	X14	Y14	Z14	X15	Y15	Z15	X16	Y16	Z16	X17	Y17	Z17	X18	Y18	Z18	X19	Y19	Z19	X20	Y20	Z20	X21	Y21	Z21	X22	Y22	Z22	X23	Y23	Z23	X24	Y24	Z24	X25	Y25	Z25	X26	Y26	Z26	X27	Y27	Z27	X28	Y28	Z28	X29	Y29	Z29	X30	Y30	Z30	X31	Y31	Z31	X32	Y32	Z32	X33	Y33	Z33	X34	Y34	Z34	X35	Y35	Z35	X36	Y36	Z36	X37	Y37	Z37	X38	Y38	Z38	X39	Y39	Z39	X40	Y40	Z40	X41	Y41	Z41	X42	Y42	Z42	X43	Y43	Z43	X44	Y44	Z44	X45	Y45	Z45	X46	Y46	Z46	X47	Y47	Z47	X48	Y48	Z48	X49	Y49	Z49	X50	Y50	Z50	X51	Y51	Z51	X52	Y52	Z52	

97	0.96	338.787078857422	888.1723632812505	911.8672485351567	252.0376892089845	922.018676757813	739.1901855468752	161.996810913086	919.3175659179692	741.5163574218752	98.22096252441412	888.9821166992192	926.0911254882817	391.9793090820315	800.4774780273442	836.6598510742192	405.4104309082034	459.2156066894534	919.9575195312505	290.6943664550782	435.5289001464846	959.6192016601567	408.2416687011721	417.1047973632815	878.9988403320317	372.8503723144532	364.0151367187501	927.9787597656255	355.6621093750001	184.9252319335938	665.0228271484377	274.2273254394532	171.3839721679688	701.2691650390627	300.592987060547	176.7511901855469	613.862976074219	309.4107666015626	66.06461334228518	753.4575195312502	367.5582885742189	73.464714050293	752.5034179687502	396.4192810058596	91.82674407958987	701.2170410156252	39.82297134399415	791.0822753906255	837.6852416992192	89.46012115478518	441.2408752441409	862.7073364257817	209.7860260009767	435.2292175292971	871.1606445312505	88.91917419433597	374.8009033203126	840.9914550781255	141.1340637207032	369.5364990234376	903.8541870117192	147.8102264404297	68.28424072265628	786.5331420898442	231.4700164794923	86.1672058105469	823.5503540039067	204.5264282226564	29.86500549316408	743.4004516601565	220.046356201172	25.01644325256349	931.8943481445317	154.6690673828126	36.80331420898439	936.488403320313	109.0791778564454	24.25226783752443	875.4079589843755	189.8077850341797	1387.558349609375	775.390258789063	197.1525421142579	1156.112915039063	708.4218750000002	222.7807617187501	1160.846801757813	943.0369262695317	209.8420562744142	1323.148193359375	901.2564086914067	286.2982788085939	1200.015014648438	696.4988403320315	277.6600646972657	1330.35107421875	721.226989746094	392.3537902832034	1329.554443359375	785.187377929688	381.4854125976564	1340.02783203125	827.001586914063	465.3130493164065	1063.383178710938	774.4757690429692	389.8175048828127	1030.26025390625	749.1601562500002	438.4024353027346	1035.104736328125	740.1616821289065	451.4860534667971	818.1023559570317	827.290161132813	517.1737060546877	831.3599243164067	782.660766601563	466.3408203125002	729.7949829101565	836.6994628906255	528.5735473632815	758.0723876953127	759.5336914062502	76.39952087402347	1195.391357421875	722.1141357421877	99.67801666259771	1317.31298828125	743.9411621093752	7.205469608306888	1310.95556640625	835.2385864257817	26.8211078643799	1315.035522460938	885.3229370117192	-46.3206024169922	1012.472778320313	889.7958374023442	24.23405647277833	992.4227905273442	849.3659667968755	-21.97406959533692	984.552612304688	858.009155273438	3.237037658691408	828.5388793945317	1018.512023925782	-65.051628112793	814.3536987304692	976.7424316406255	-7.644432544708256	748.603454589844	1069.408203125	-66.62308502197268	737.5440673828127	985.3204956054692	
98	0.97	337.3614807128907	889.1162109375005	921.3227539062505	251.5783691406251	922.2794799804692	748.1041259765627	161.6795654296876	919.3557739257817	750.3384399414065	96.57212066650396	888.8805541992192	934.281127929688	391.5854797363284	801.4236450195317	847.3107299804692	404.3289184570315	461.363952636719	937.3222045898442	289.6211547851564	438.6748657226565	976.790893554688	407.1544189453127	417.8789367675784	897.6110229492192	371.6122131347657	366.5232543945314	948.220825195313	355.3560791015626	177.3661193847657	692.4226074218752	273.7015991210939	165.5609588623047	728.564636230469	300.7659301757814	166.6875762939454	641.0765380859377	308.5232849121095	63.28557586669925	786.025024414063	366.6219482421876	70.82666015625003	785.3102416992192	395.8990173339846	86.42348480224612	733.4282836914065	39.18166351318361	791.0689086914067	845.0427246093755	88.79292297363284	441.2164611816409	864.733276367188	209.0569000244142	435.0528869628909	873.6633300781255	88.43167114257815	374.897674560547	842.4535522460942	140.3256988525391	369.3338012695314	905.3189086914067	147.8624114990235	68.6519470214844	786.676879882813	231.3787994384767	86.44293212890628	823.8278198242192	204.7742462158204	30.36607742309572	743.6802368164065	219.8604888916017	25.12656593322755	931.908569335938	154.5019683837891	36.81771469116212	936.5537109375005	108.9890365600587	24.25375747680665	875.3557739257817	189.1788940429688	1387.911376953125	784.552856445313	196.0071716308595	1156.6328125	716.9587402343752	222.4776763916017	1161.29833984375	952.2514038085942	209.9030151367189	1323.5380859375	910.2348632812505	284.565643310547	1199.960815429688	704.9985351562502	276.2781372070314	1330.272216796875	729.720642089844	391.2109985351565	1329.76025390625	792.319458007813	381.2319641113282	1340.183837890625	834.2619628906255	464.2068786621096	1064.213012695313	777.3587036132817	388.2586975097659	1031.301025390625	753.238708496094	436.6529235839846	1036.569458007813	743.1335449218752	452.8452758789065	818.3738403320317	826.9098510742192	516.9139404296877	832.432983398438	780.432495117188	468.0841369628909	729.9367675781252	834.438842773438	527.8828125000002	759.5278930664065	756.0112304687502	75.02210235595706	1195.940307617188	732.1292724609377	98.80848693847662	1317.8203125	753.3560791015627	6.805660247802738	1311.947143554688	845.0919799804692	26.86567306518556	1316.220947265625	894.8898315429692	-47.94272994995119	1014.249572753907	904.815795898438	22.3110752105713	993.177124023438	863.9689331054692	-23.92155838012696	985.4345092773442	873.1676635742192	2.981124639511109	834.500854492188	1038.390991210938	-65.51743316650393	818.7158203125005	997.700561523438	-7.485617160797123	756.2679443359377	1092.140258789063	-66.91786956787112	742.2753906250002	1008.857788085938	
99	0.98	336.035858154297	889.831909179688	930.7223510742192	251.2031402587892	922.345581054688	756.9652099609377	161.4564514160157	919.252075195313	759.0996704101565	95.03713989257815	888.659301757813	942.4353027343755	391.2462463378909	802.1298828125005	857.8554077148442	403.1147460937502	463.3022460937502	954.2103881835942	288.4540100097657	441.6728515625002	993.4716796875005	405.9549255371096	418.3707580566409	915.8226928710942	370.221893310547	368.9026184082032	968.104858398438	355.0505981445314	169.1446380615235	720.4199829101565	273.1881713867189	159.1150207519532	756.460144042969	300.9299621582032	155.8279113769532	669.1079711914065	307.6032104492189	60.24540710449222	819.165649414063	365.6398010253907	67.87727355957034	818.5684204101567	395.3500061035159	80.61787414550784	766.189392089844	38.56958007812501	790.9987792968755	852.3296508789067	88.1789245605469	441.1915588378909	866.7802124023442	208.3851013183595	434.8562316894534	876.1983032226567	87.99087524414065	375.0065002441407	843.9352416992192	139.5872192382813	369.0650939941407	906.8210449218755	147.947494506836	69.03557586669925	786.8242797851567	231.3423309326173	86.7239685058594	824.1314086914067	205.0737304687501	30.86886024475099	743.9780883789065	219.6578826904298	25.2440700531006	931.9301147460942	154.3297882080079	36.8449058532715	936.6218872070317	108.9124908447266	24.25409317016603	875.2940063476567	188.6507415771485	1388.10400390625	793.7572631835942	194.9802703857423	1156.996704101563	725.5313720703127	222.1821899414064	1161.548828125	961.4926147460942	209.9761657714845	1323.72705078125	919.249145507813	282.969207763672	1199.7734375	713.528503417969	275.0151672363282	1330.057861328125	738.2986450195315	390.1473693847659	1329.803466796875	799.626342773438	381.0223083496095	1340.1474609375	841.6790161132817	463.1783447265627	1064.95556640625	780.338989257813	386.8287048339846	1032.233032226563	757.3303833007815	435.0260009765627	1037.881591796875	746.2181396484377	454.0589294433596	818.6273803710942	826.8943481445317	516.504089355469	833.4011840820317	778.561889648438	469.6212158203127	730.1292724609377	832.685180664063	526.9085693359377	760.8129882812502	752.9772949218752	73.78071594238284	1196.326293945313	742.0999145507815	98.05731201171881	1318.174438476563	762.7607421875002	6.472136497497562	1312.757202148438	854.8546752929692	26.93002700805665	1317.264892578125	904.3099975585942	-49.43955230712893	1015.924194335938	919.6077270507817	20.56877326965333	993.8190307617192	878.560913085938	-25.68727874755861	986.2661743164067	888.0786132812505	2.821818113327027	840.5200195312505	1058.009765625	-65.82781219482425	823.1495971679692	1018.352844238282	-7.213039875030521	764.076599121094	1114.5087890625	-67.01602935791018	747.1495361328127	1032.0859375	
100	0.99	334.8271484375001	890.3154907226567	940.0613403320317	250.9004974365236	922.2191772460942	765.778259277344	161.3128204345704	919.0151367187505	767.807067871094	93.63962554931643	888.3296508789067	950.578735351563	390.9458923339846	802.581176757813	868.2712402343755	401.7690734863284	464.9881896972659	970.5899047851567	287.1952209472657	444.4768676757815	1009.648254394532	404.6393737792971	418.556579589844	933.603149414063	368.6936950683595	371.1222534179689	987.5883789062505	354.7407531738282	160.3987121582032	749.009460449219	272.6962280273439	152.1468048095704	784.9663696289067	301.074432373047	144.3204040527344	697.9683837890627	306.7513427734376	57.0644226074219	852.8621215820317	364.7120971679689	64.76795959472659	852.2426757812505	394.8340454101565	74.58769226074222	799.4644165039067	37.98559188842775	790.8799438476567	859.5773315429692	87.62544250488284	441.1708984375002	868.8625488281255	207.7720184326173	434.6389465332034	878.7663574218755	87.60027313232425	375.1280212402345	845.4412231445317	138.9248657226563	368.7268981933595	908.371215820313	148.0649719238282	69.42874145507815	786.9748535156255	231.3564605712892	87.00868225097659	824.4633178710942	205.4204864501954	31.37341880798341	744.2828369140627	219.440399169922	25.36672210693361	931.9640502929692	154.1495819091797	36.88414764404298	936.6965332031255	108.8480911254883	24.24924087524415	875.2243041992192	188.2234191894532	1388.135620117188	803.0122680664067	194.0683593750001	1157.1943359375	734.1767578125002	221.9138031005861	1161.593383789063	970.7640991210942	210.0684356689454	1323.711669921875	928.3083496093755	281.5068664550782	1199.459716796875	722.103698730469	273.8758239746095	1329.720947265625	746.965759277344	389.1786193847659	1329.679565429688	807.1276245117192	380.8607177734376	1339.915893554688	849.273071289063	462.2169494628909	1065.599975585938	783.459838867188	385.5198364257815	1033.047119140625	761.475524902344	433.5107116699221	1039.032348632813	749.4565429687502	455.1040344238284	818.830200195313	827.2358398437505	515.9612426757815	834.2506713867192	777.1007690429692	470.9394836425784	730.3244628906252	831.4346313476567	525.6992797851565	761.918884277344	750.4644775390627	72.66922760009768	1196.549194335938	752.0366210937502	97.41825103759771	1318.37158203125	772.1767578125005	6.204598903656009	1313.38037109375	864.561157226563	27.01541900634767	1318.15625	913.6213989257817	-50.81118011474612	1017.484069824219	934.143676757813	19.00460052490235	994.341918945313	893.1230468750005	-27.2742042541504	987.0350952148442	902.7238159179692	2.758329391479493	846.5559692382817	1077.3408203125	-65.98627471923831	827.621459960938	1038.664794921875	-6.832070827484134	771.9824218750005	1136.4716796875	-66.92182159423831	752.1325683593752	1054.956176757813	
